<?xml version="1.0" encoding="UTF-8" standalone="no"?>
<!DOCTYPE svg PUBLIC "-//W3C//DTD SVG 1.1//EN" "http://www.w3.org/Graphics/SVG/1.1/DTD/svg11.dtd">
<svg width="100%" height="100%" viewBox="0 0 512 512" version="1.1" xmlns="http://www.w3.org/2000/svg" xmlns:xlink="http://www.w3.org/1999/xlink" xml:space="preserve" xmlns:serif="http://www.serif.com/" style="fill-rule:evenodd;clip-rule:evenodd;stroke-linejoin:round;stroke-miterlimit:2;">
    <path d="M256,248C233.9,248 216,265.9 216,288C216,310.1 233.91,328 256,328C278.09,328 296,310.1 296,288C296,265.9 278.1,248 256,248ZM464,96L272,96L208,32L48,32C21.5,32 0,53.5 0,80L0,432C0,458.5 21.5,480 48,480L464,480C490.5,480 512,458.5 512,432L512,144C512,117.5 490.5,96 464,96ZM366.9,352C362.443,359.719 357.119,366.55 351.34,372.86C348.834,375.598 344.707,376.141 341.494,374.282L318.034,360.742C309.2,368.3 299.1,374.2 288,378.1L288,405.12C288,408.831 285.469,412.136 281.846,412.932C273.5,414.8 264.9,416 256,416C247.088,416 238.51,414.805 230.16,412.953C226.5,412.2 224,408.9 224,405.1L224,378.08C212.88,374.123 202.81,368.213 194.01,360.7L170.6,374.3C167.385,376.159 163.26,375.616 160.752,372.878C154.9,366.6 149.6,359.7 145.1,352C140.645,344.281 137.391,336.25 134.81,328.09C133.7,324.6 135.3,320.7 138.6,318.9L161.81,305.5C160.7,299.8 160,293.1 160,288C160,282.9 160.713,276.22 161.76,270.54L138.6,257.1C135.3,255.3 133.7,251.4 134.9,247.9C137.4,239.7 140.7,231.7 145.1,224C149.557,216.281 154.883,209.45 160.66,203.14C163.2,200.4 167.3,199.9 170.6,201.7L194.05,215.24C202.8,207.7 212.9,201.8 224,197.9L224,170.9C224,167.189 226.531,163.884 230.156,163.084C238.5,161.2 247.1,160 256,160C264.914,160 273.49,161.195 281.85,163.043C285.5,163.8 288,167.1 288,170.9L288,197.92C299.12,201.877 309.19,207.787 317.99,215.3L341.45,201.76C344.663,199.901 348.79,200.444 351.296,203.182C357.1,209.4 362.4,216.3 366.9,224C371.4,231.7 374.611,239.75 377.19,247.91C378.309,251.449 376.713,255.293 373.501,257.144L350.291,270.544C351.3,276.2 352,282 352,288C352,294 351.287,299.78 350.24,305.46L373.45,318.86C376.663,320.712 378.259,324.555 377.141,328.094C374.6,336.3 371.3,344.3 366.9,352Z" style="fill-rule:nonzero;"/>
</svg>
