<?xml version="1.0" encoding="UTF-8" standalone="no"?>
<!DOCTYPE svg PUBLIC "-//W3C//DTD SVG 1.1//EN" "http://www.w3.org/Graphics/SVG/1.1/DTD/svg11.dtd">
<svg width="100%" height="100%" viewBox="0 0 1038 189" version="1.1" xmlns="http://www.w3.org/2000/svg" xmlns:xlink="http://www.w3.org/1999/xlink" xml:space="preserve" xmlns:serif="http://www.serif.com/" style="fill-rule:evenodd;clip-rule:evenodd;stroke-linejoin:round;stroke-miterlimit:2;">
    <g transform="matrix(0.390625,0,0,0.390625,0,2.03804)">
        <path d="M256,248C233.9,248 216,265.9 216,288C216,310.1 233.91,328 256,328C278.09,328 296,310.1 296,288C296,265.9 278.1,248 256,248ZM464,96L272,96L208,32L48,32C21.5,32 0,53.5 0,80L0,432C0,458.5 21.5,480 48,480L464,480C490.5,480 512,458.5 512,432L512,144C512,117.5 490.5,96 464,96ZM366.9,352C362.443,359.719 357.119,366.55 351.34,372.86C348.834,375.598 344.707,376.141 341.494,374.282L318.034,360.742C309.2,368.3 299.1,374.2 288,378.1L288,405.12C288,408.831 285.469,412.136 281.846,412.932C273.5,414.8 264.9,416 256,416C247.088,416 238.51,414.805 230.16,412.953C226.5,412.2 224,408.9 224,405.1L224,378.08C212.88,374.123 202.81,368.213 194.01,360.7L170.6,374.3C167.385,376.159 163.26,375.616 160.752,372.878C154.9,366.6 149.6,359.7 145.1,352C140.645,344.281 137.391,336.25 134.81,328.09C133.7,324.6 135.3,320.7 138.6,318.9L161.81,305.5C160.7,299.8 160,293.1 160,288C160,282.9 160.713,276.22 161.76,270.54L138.6,257.1C135.3,255.3 133.7,251.4 134.9,247.9C137.4,239.7 140.7,231.7 145.1,224C149.557,216.281 154.883,209.45 160.66,203.14C163.2,200.4 167.3,199.9 170.6,201.7L194.05,215.24C202.8,207.7 212.9,201.8 224,197.9L224,170.9C224,167.189 226.531,163.884 230.156,163.084C238.5,161.2 247.1,160 256,160C264.914,160 273.49,161.195 281.85,163.043C285.5,163.8 288,167.1 288,170.9L288,197.92C299.12,201.877 309.19,207.787 317.99,215.3L341.45,201.76C344.663,199.901 348.79,200.444 351.296,203.182C357.1,209.4 362.4,216.3 366.9,224C371.4,231.7 374.611,239.75 377.19,247.91C378.309,251.449 376.713,255.293 373.501,257.144L350.291,270.544C351.3,276.2 352,282 352,288C352,294 351.287,299.78 350.24,305.46L373.45,318.86C376.663,320.712 378.259,324.555 377.141,328.094C374.6,336.3 371.3,344.3 366.9,352Z" style="fill:url(#_Linear1);fill-rule:nonzero;"/>
    </g>
    <g transform="matrix(16.0988,0,0,16.0988,-4035.6,-934.894)">
        <path d="M268.214,60.395L271.634,60.395C272.522,60.395 273.306,60.573 273.986,60.929C274.666,61.285 275.194,61.781 275.57,62.417C275.946,63.053 276.134,63.779 276.134,64.595C276.134,65.411 275.946,66.137 275.57,66.773C275.194,67.409 274.666,67.905 273.986,68.261C273.306,68.617 272.522,68.795 271.634,68.795L268.214,68.795L268.214,60.395ZM271.586,68.027C272.322,68.027 272.966,67.881 273.518,67.589C274.07,67.297 274.498,66.893 274.802,66.377C275.106,65.861 275.258,65.267 275.258,64.595C275.258,63.923 275.106,63.329 274.802,62.813C274.498,62.297 274.07,61.893 273.518,61.601C272.966,61.309 272.322,61.163 271.586,61.163L269.102,61.163L269.102,68.027L271.586,68.027Z" style="fill-rule:nonzero;"/>
        <path d="M277.358,60.395L278.114,60.395L278.054,63.563L277.418,63.563L277.358,60.395Z" style="fill-rule:nonzero;"/>
        <path d="M281.834,68.855C281.322,68.855 280.832,68.781 280.364,68.633C279.896,68.485 279.53,68.299 279.266,68.075L279.65,67.403C279.914,67.611 280.246,67.781 280.646,67.913C281.046,68.045 281.462,68.111 281.894,68.111C282.47,68.111 282.896,68.021 283.172,67.841C283.448,67.661 283.586,67.407 283.586,67.079C283.586,66.847 283.51,66.665 283.358,66.533C283.206,66.401 283.014,66.301 282.782,66.233C282.55,66.165 282.242,66.099 281.858,66.035C281.346,65.939 280.934,65.841 280.622,65.741C280.31,65.641 280.044,65.471 279.824,65.231C279.604,64.991 279.494,64.659 279.494,64.235C279.494,63.707 279.714,63.275 280.154,62.939C280.594,62.603 281.206,62.435 281.99,62.435C282.398,62.435 282.806,62.489 283.214,62.597C283.622,62.705 283.958,62.847 284.222,63.023L283.85,63.707C283.33,63.347 282.71,63.167 281.99,63.167C281.446,63.167 281.036,63.263 280.76,63.455C280.484,63.647 280.346,63.899 280.346,64.211C280.346,64.451 280.424,64.643 280.58,64.787C280.736,64.931 280.93,65.037 281.162,65.105C281.394,65.173 281.714,65.243 282.122,65.315C282.626,65.411 283.03,65.507 283.334,65.603C283.638,65.699 283.898,65.863 284.114,66.095C284.33,66.327 284.438,66.647 284.438,67.055C284.438,67.607 284.208,68.045 283.748,68.369C283.288,68.693 282.65,68.855 281.834,68.855Z" style="fill-rule:nonzero;"/>
        <path d="M292.982,68.867C292.15,68.867 291.4,68.683 290.732,68.315C290.064,67.947 289.54,67.437 289.16,66.785C288.78,66.133 288.59,65.403 288.59,64.595C288.59,63.787 288.78,63.057 289.16,62.405C289.54,61.753 290.066,61.243 290.738,60.875C291.41,60.507 292.162,60.323 292.994,60.323C293.618,60.323 294.194,60.427 294.722,60.635C295.25,60.843 295.698,61.147 296.066,61.547L295.502,62.111C294.846,61.447 294.018,61.115 293.018,61.115C292.354,61.115 291.75,61.267 291.206,61.571C290.662,61.875 290.236,62.291 289.928,62.819C289.62,63.347 289.466,63.939 289.466,64.595C289.466,65.251 289.62,65.843 289.928,66.371C290.236,66.899 290.662,67.315 291.206,67.619C291.75,67.923 292.354,68.075 293.018,68.075C294.026,68.075 294.854,67.739 295.502,67.067L296.066,67.631C295.698,68.031 295.248,68.337 294.716,68.549C294.184,68.761 293.606,68.867 292.982,68.867Z" style="fill-rule:nonzero;"/>
        <path d="M306.686,60.395L306.686,68.795L305.834,68.795L305.834,62.075L302.534,67.727L302.114,67.727L298.814,62.111L298.814,68.795L297.962,68.795L297.962,60.395L298.694,60.395L302.342,66.623L305.954,60.395L306.686,60.395Z" style="fill-rule:nonzero;"/>
        <path d="M311.738,68.867C311.114,68.867 310.516,68.767 309.944,68.567C309.372,68.367 308.93,68.103 308.618,67.775L308.966,67.091C309.27,67.395 309.674,67.641 310.178,67.829C310.682,68.017 311.202,68.111 311.738,68.111C312.49,68.111 313.054,67.973 313.43,67.697C313.806,67.421 313.994,67.063 313.994,66.623C313.994,66.287 313.892,66.019 313.688,65.819C313.484,65.619 313.234,65.465 312.938,65.357C312.642,65.249 312.23,65.131 311.702,65.003C311.07,64.843 310.566,64.689 310.19,64.541C309.814,64.393 309.492,64.167 309.224,63.863C308.956,63.559 308.822,63.147 308.822,62.627C308.822,62.203 308.934,61.817 309.158,61.469C309.382,61.121 309.726,60.843 310.19,60.635C310.654,60.427 311.23,60.323 311.918,60.323C312.398,60.323 312.868,60.389 313.328,60.521C313.788,60.653 314.186,60.835 314.522,61.067L314.222,61.775C313.87,61.543 313.494,61.369 313.094,61.253C312.694,61.137 312.302,61.079 311.918,61.079C311.182,61.079 310.628,61.221 310.256,61.505C309.884,61.789 309.698,62.155 309.698,62.603C309.698,62.939 309.8,63.209 310.004,63.413C310.208,63.617 310.464,63.773 310.772,63.881C311.08,63.989 311.494,64.107 312.014,64.235C312.63,64.387 313.128,64.537 313.508,64.685C313.888,64.833 314.21,65.057 314.474,65.357C314.738,65.657 314.87,66.063 314.87,66.575C314.87,66.999 314.756,67.385 314.528,67.733C314.3,68.081 313.95,68.357 313.478,68.561C313.006,68.765 312.426,68.867 311.738,68.867Z" style="fill-rule:nonzero;"/>
    </g>
    <defs>
        <linearGradient id="_Linear1" x1="0" y1="0" x2="1" y2="0" gradientUnits="userSpaceOnUse" gradientTransform="matrix(471.793,423.235,-423.235,471.793,23.7353,39.807)"><stop offset="0" style="stop-color:rgb(102,126,234);stop-opacity:1"/><stop offset="1" style="stop-color:rgb(118,75,162);stop-opacity:1"/></linearGradient>
    </defs>
</svg>
